<svg width="27" height="20" viewBox="0 0 27 20" fill="none" xmlns="http://www.w3.org/2000/svg">
<path d="M3 0C2.20435 0 1.44129 0.324175 0.87868 0.90121C0.316071 1.47824 0 2.26087 0 3.07692L0 16.9231C0 17.7391 0.316071 18.5218 0.87868 19.0988C1.44129 19.6758 2.20435 20 3 20H24C24.7956 20 25.5587 19.6758 26.1213 19.0988C26.6839 18.5218 27 17.7391 27 16.9231V3.07692C27 3.07692 27 0 24 0H3Z" fill="#E2E2E2"/>
<path d="M16.0682 12.9584H10.9307V4.19185H16.0682V12.9584Z" fill="#6C6BBD"/>
<path d="M11.2573 8.57532C11.2573 6.79696 12.1342 5.21288 13.4998 4.19206C12.5012 3.44558 11.2407 3 9.8711 3C6.62851 3 4 5.49609 4 8.57532C4 11.6545 6.62851 14.1506 9.8711 14.1506C11.2408 14.1506 12.5012 13.705 13.4998 12.9585C12.1342 11.9377 11.2573 10.3536 11.2573 8.57532" fill="#D32011"/>
<path d="M23.0001 8.57532C23.0001 11.6545 20.3716 14.1506 17.129 14.1506C15.7593 14.1506 14.499 13.705 13.5 12.9585C14.866 11.9377 15.7429 10.3536 15.7429 8.57532C15.7429 6.79696 14.866 5.21288 13.5 4.19206C14.499 3.44558 15.7594 3 17.129 3C20.3716 3 23.0001 5.49609 23.0001 8.57532Z" fill="#0099DF"/>
<path d="M17.8077 15.4354C17.876 15.4354 17.9742 15.4478 18.0492 15.4758L17.9447 15.7793C17.873 15.7513 17.8013 15.742 17.7327 15.742C17.5109 15.742 17.4 15.8781 17.4 16.1227V16.9529H17.0607V15.4726H17.3967V15.6523C17.4848 15.5223 17.6121 15.4354 17.8077 15.4354V15.4354ZM16.5541 15.7669H15.9997V16.4357C15.9997 16.5842 16.055 16.6834 16.2249 16.6834C16.313 16.6834 16.4238 16.6555 16.5246 16.5998L16.6224 16.8753C16.5149 16.9464 16.3454 16.9901 16.1987 16.9901C15.7974 16.9901 15.6574 16.7856 15.6574 16.4417V15.7669H15.3408V15.4726H15.6574V15.0235H15.9997V15.4726H16.5541V15.7669V15.7669ZM12.2128 16.0827C12.249 15.869 12.3857 15.7233 12.6272 15.7233C12.8456 15.7233 12.9859 15.8533 13.0218 16.0827H12.2128ZM13.3742 16.2128C13.3708 15.7512 13.0707 15.4354 12.6335 15.4354C12.177 15.4354 11.8574 15.7513 11.8574 16.2127C11.8574 16.6831 12.1901 16.9897 12.6567 16.9897C12.8915 16.9897 13.1065 16.934 13.2958 16.7824L13.1293 16.5439C12.999 16.6431 12.8325 16.6987 12.6761 16.6987C12.4577 16.6987 12.2587 16.6027 12.2098 16.3365H13.3675C13.3708 16.2961 13.3741 16.256 13.3741 16.2128H13.3742ZM14.8645 15.8505C14.77 15.7945 14.5777 15.7232 14.3788 15.7232C14.1928 15.7232 14.082 15.7885 14.082 15.8969C14.082 15.9958 14.1992 16.0238 14.346 16.0422L14.5057 16.0639C14.8451 16.1107 15.0504 16.2468 15.0504 16.507C15.0504 16.7887 14.7894 16.9901 14.3396 16.9901C14.085 16.9901 13.8502 16.928 13.6642 16.798L13.824 16.547C13.9383 16.6307 14.1082 16.7019 14.3429 16.7019C14.5744 16.7019 14.6983 16.6371 14.6983 16.5222C14.6983 16.4389 14.6102 16.3921 14.4243 16.3677L14.2645 16.346C13.9155 16.2993 13.7262 16.1507 13.7262 15.9093C13.7262 15.6151 13.9808 15.4354 14.3754 15.4354C14.6233 15.4354 14.8484 15.4883 15.0112 15.5903L14.8644 15.8505H14.8645ZM19.0474 15.7413C18.9777 15.7413 18.9131 15.753 18.853 15.7761C18.7948 15.7984 18.742 15.8317 18.6977 15.8739C18.6531 15.9171 18.6181 15.9683 18.5946 16.0246C18.5696 16.0831 18.5573 16.1475 18.5573 16.2177C18.5573 16.2883 18.5696 16.3524 18.5946 16.4109C18.6197 16.4694 18.654 16.5197 18.6977 16.5615C18.742 16.6037 18.7948 16.637 18.853 16.6593C18.9131 16.6827 18.9777 16.6941 19.0474 16.6941C19.1172 16.6941 19.1822 16.6828 19.2419 16.6593C19.3003 16.6371 19.3534 16.6038 19.398 16.5615C19.4424 16.5197 19.4768 16.4694 19.5022 16.4109C19.5272 16.3524 19.5395 16.2883 19.5395 16.2177C19.5395 16.1475 19.5272 16.0831 19.5022 16.0246C19.4768 15.9661 19.4424 15.9158 19.398 15.8739C19.3535 15.8316 19.3004 15.7984 19.242 15.7761C19.1801 15.7526 19.1141 15.7408 19.0475 15.7413L19.0474 15.7413ZM19.0474 15.4354C19.1684 15.4354 19.2804 15.4553 19.3834 15.4953C19.4831 15.533 19.5739 15.5888 19.6508 15.6598C19.7264 15.7302 19.7865 15.8143 19.8273 15.9072C19.8699 16.0026 19.8912 16.1061 19.8912 16.2177C19.8912 16.3293 19.8699 16.4329 19.8273 16.5282C19.7865 16.6212 19.7264 16.7054 19.6507 16.776C19.5757 16.8458 19.4864 16.9004 19.3835 16.9405C19.2803 16.9802 19.1684 17 19.0474 17C18.9265 17 18.8145 16.9802 18.7115 16.9405C18.6084 16.9004 18.52 16.8458 18.4453 16.776C18.3701 16.7052 18.3103 16.621 18.2694 16.5282C18.2269 16.4329 18.2056 16.3293 18.2056 16.2177C18.2056 16.1061 18.2269 16.0026 18.2694 15.9072C18.3103 15.8146 18.3701 15.7305 18.4453 15.6598C18.5217 15.5888 18.6121 15.5329 18.7115 15.4953C18.8145 15.4553 18.9265 15.4354 19.0474 15.4354ZM10.2313 16.2127C10.2313 15.9526 10.4109 15.7389 10.7043 15.7389C10.9847 15.7389 11.1739 15.9434 11.1739 16.2128C11.1739 16.4821 10.9847 16.6863 10.7043 16.6863C10.4109 16.6863 10.2313 16.473 10.2313 16.2128V16.2127ZM11.4935 16.2127V15.4726H11.1545V15.6523C11.0467 15.5191 10.8839 15.4354 10.6621 15.4354C10.225 15.4354 9.88262 15.7604 9.88262 16.2127C9.88262 16.6647 10.225 16.9901 10.6621 16.9901C10.8839 16.9901 11.0466 16.9064 11.1545 16.7732V16.9529H11.4935V16.2128V16.2127ZM9.58241 16.9529V16.0239C9.58241 15.674 9.34758 15.4387 8.96944 15.4355C8.77046 15.4323 8.56473 15.4912 8.42141 15.6989C8.31387 15.5347 8.14406 15.4355 7.9059 15.4355C7.73972 15.4355 7.57659 15.4819 7.44931 15.6552V15.4727H7.11035V16.9529H7.45265V16.1324C7.45265 15.8754 7.60271 15.7389 7.83413 15.7389C8.0593 15.7389 8.17353 15.8782 8.17353 16.1292V16.9529H8.51589V16.1323C8.51589 15.8753 8.67264 15.7389 8.89738 15.7389C9.12923 15.7389 9.24012 15.8781 9.24012 16.1291V16.9529H9.58241V16.9529Z" fill="#110F0D"/>
</svg>
