<svg width="27" height="20" viewBox="0 0 27 20" fill="none" xmlns="http://www.w3.org/2000/svg">
<path d="M3 0C2.20435 0 1.44129 0.324175 0.87868 0.90121C0.316071 1.47824 0 2.26087 0 3.07692L0 16.9231C0 17.7391 0.316071 18.5218 0.87868 19.0988C1.44129 19.6758 2.20435 20 3 20H24C24.7956 20 25.5587 19.6758 26.1213 19.0988C26.6839 18.5218 27 17.7391 27 16.9231V3.07692C27 3.07692 27 0 24 0H3Z" fill="#FFAC33"/>
<path d="M0 3.84616H27V7.69231H0V3.84616Z" fill="#292F33"/>
<path d="M3 10.7692H24V15.3846H3V10.7692Z" fill="#F4F7F9"/>
<path d="M14.2498 14.6154C12.9725 14.6154 12.494 13.6846 12.398 13.23C11.9878 13.2615 11.588 13.4631 11.0443 13.8177C10.4705 14.1915 9.82029 14.6154 8.99979 14.6154C8.10204 14.6154 7.55679 14.0962 7.49979 13.0769C7.49754 13.0339 7.52829 12.9323 7.51554 12.9323C6.12204 12.9323 5.11404 14.2869 5.10429 14.3008C5.04624 14.3824 4.97303 14.4515 4.88888 14.504C4.80473 14.5565 4.71129 14.5914 4.61393 14.6068C4.51657 14.6222 4.41721 14.6177 4.32155 14.5935C4.2259 14.5694 4.13584 14.5261 4.05654 14.4662C3.97709 14.4064 3.9099 14.3312 3.8588 14.2448C3.8077 14.1584 3.77369 14.0626 3.75872 13.9627C3.74374 13.8629 3.7481 13.761 3.77153 13.6628C3.79496 13.5647 3.83702 13.4722 3.89529 13.3908C3.95304 13.31 5.33229 11.5385 7.49979 11.5385C8.95254 11.5385 9.03579 12.5962 9.05829 12.9908L9.06354 13.0746C9.42804 13.0485 9.80679 12.8023 10.241 12.5185C10.9618 12.0492 11.8558 11.4639 13.0535 11.7785C13.7068 11.95 13.8088 12.5715 13.8478 12.8062C13.8575 12.8646 13.8718 12.9523 13.8845 12.98C13.8898 12.98 13.994 13.05 14.3173 13.08C14.9323 13.1377 15.608 12.8654 16.3235 12.5777C17.0645 12.2792 17.831 11.9715 18.6568 11.9715C21.1985 11.9715 22.232 13.2292 22.3415 13.3723C22.4045 13.4516 22.4515 13.543 22.4796 13.6412C22.5077 13.7393 22.5165 13.8422 22.5053 13.9439C22.4942 14.0455 22.4634 14.1439 22.4148 14.2332C22.3662 14.3225 22.3007 14.401 22.2221 14.464C22.1435 14.527 22.0535 14.5733 21.9573 14.6002C21.8611 14.6271 21.7606 14.6341 21.6617 14.6207C21.5628 14.6073 21.4676 14.5738 21.3815 14.5222C21.2954 14.4705 21.2202 14.4018 21.1603 14.32C21.1423 14.2992 20.4628 13.5092 18.6575 13.5092C18.1153 13.5092 17.5115 13.7515 16.8718 14.0085C16.115 14.3131 15.0463 14.6154 14.2498 14.6154V14.6154Z" fill="#8899A6"/>
</svg>
