<svg width="27" height="20" viewBox="0 0 27 20" fill="none" xmlns="http://www.w3.org/2000/svg">
<path d="M3 0C2.20435 0 1.44129 0.324175 0.87868 0.90121C0.316071 1.47824 0 2.26087 0 3.07692L0 16.9231C0 17.7391 0.316071 18.5218 0.87868 19.0988C1.44129 19.6758 2.20435 20 3 20H24C24.7956 20 25.5587 19.6758 26.1213 19.0988C26.6839 18.5218 27 17.7391 27 16.9231V3.07692C27 3.07692 27 0 24 0H3Z" fill="#E2E2E2"/>
<path d="M13.8092 8.91813C13.7989 9.75396 14.5308 10.2204 15.0821 10.4977C15.6485 10.7822 15.8388 10.9647 15.8366 11.2191C15.8323 11.6085 15.3847 11.7804 14.9659 11.7871C14.2351 11.7987 13.8102 11.5834 13.4724 11.4205L13.2092 12.692C13.5481 12.8532 14.1756 12.9938 14.8264 13C16.3539 13 17.3533 12.2217 17.3587 11.0149C17.3647 9.48331 15.3064 9.39853 15.3205 8.71396C15.3253 8.50639 15.5172 8.28487 15.9377 8.22855C16.1458 8.2001 16.7203 8.17833 17.3717 8.48795L17.6273 7.25773C17.277 7.12607 16.8268 7 16.2663 7C14.8286 7 13.8173 7.78894 13.8092 8.91813M20.0839 7.10597C19.805 7.10597 19.5699 7.27391 19.465 7.53164L17.283 12.9096H18.8094L19.1132 12.0431H20.9784L21.1546 12.9096H22.5L21.326 7.10597H20.0839M20.2975 8.67376L20.738 10.8531H19.5315L20.2975 8.67376M11.9585 7.10604L10.7553 12.9096H12.2098L13.4125 7.10589H11.9585M9.8067 7.10589L8.29273 11.0562L7.6803 7.69742C7.60845 7.32247 7.32466 7.10597 7.00952 7.10597H4.53466L4.5 7.2745C5.00808 7.3883 5.58534 7.57185 5.93508 7.76825C6.14911 7.88823 6.21014 7.99311 6.28045 8.2782L7.4404 12.9096H8.9775L11.3341 7.10597H9.8067" fill="url(#paint0_linear_227_29)"/>
<defs>
<linearGradient id="paint0_linear_227_29" x1="12.7753" y1="13.1204" x2="12.9546" y2="6.95859" gradientUnits="userSpaceOnUse">
<stop stop-color="#222357"/>
<stop offset="1" stop-color="#254AA5"/>
</linearGradient>
</defs>
</svg>
