<svg width="27" height="20" viewBox="0 0 27 20" fill="none" xmlns="http://www.w3.org/2000/svg">
<path d="M3 0C2.20435 0 1.44129 0.324175 0.87868 0.90121C0.316071 1.47824 0 2.26087 0 3.07692L0 16.9231C0 17.7391 0.316071 18.5218 0.87868 19.0988C1.44129 19.6758 2.20435 20 3 20H24C24.7956 20 25.5587 19.6758 26.1213 19.0988C26.6839 18.5218 27 17.7391 27 16.9231V3.07692C27 3.07692 27 0 24 0H3Z" fill="#E2E2E2"/>
<path d="M8.09399 16.9712V16.1084C8.09399 15.7776 7.88966 15.562 7.53942 15.562C7.36433 15.562 7.17462 15.6195 7.04327 15.8064C6.94117 15.6482 6.79526 15.562 6.57637 15.562C6.4304 15.562 6.28456 15.6051 6.16776 15.7633V15.5907H5.86133V16.9712H6.16776V16.2091C6.16776 15.9646 6.29911 15.8496 6.50345 15.8496C6.70765 15.8496 6.80989 15.979 6.80989 16.2091V16.9712H7.11632V16.2091C7.11632 15.9646 7.26216 15.8496 7.45187 15.8496C7.65621 15.8496 7.75831 15.979 7.75831 16.2091V16.9712H8.09399V16.9712ZM12.6321 15.5907H12.136V15.1737H11.8296V15.5907H11.5523V15.8639H11.8295V16.4967C11.8295 16.8131 11.9609 17 12.3111 17C12.4425 17 12.5883 16.9569 12.6905 16.8994L12.6029 16.6405C12.5154 16.698 12.4133 16.7124 12.3403 16.7124C12.1944 16.7124 12.136 16.6261 12.136 16.4823V15.8639H12.6321V15.5907V15.5907ZM15.2296 15.5619C15.0545 15.5619 14.9378 15.6482 14.8648 15.7633V15.5907H14.5583V16.9712H14.8648V16.1947C14.8648 15.9646 14.9669 15.8352 15.1566 15.8352C15.215 15.8352 15.2879 15.8496 15.3463 15.864L15.4338 15.5764C15.3755 15.562 15.2879 15.562 15.2296 15.562V15.5619ZM11.3043 15.7058C11.1583 15.6051 10.954 15.562 10.7351 15.562C10.385 15.562 10.1515 15.7345 10.1515 16.0078C10.1515 16.2379 10.3266 16.3673 10.633 16.4104L10.7789 16.4248C10.9395 16.4535 11.027 16.4967 11.027 16.5686C11.027 16.6692 10.9103 16.7412 10.706 16.7412C10.5017 16.7412 10.3412 16.6692 10.239 16.5974L10.0931 16.8275C10.2536 16.9425 10.4725 17 10.6913 17C11.0999 17 11.3334 16.8131 11.3334 16.5542C11.3334 16.3097 11.1437 16.1803 10.8519 16.1372L10.706 16.1228C10.5746 16.1084 10.4725 16.0797 10.4725 15.9934C10.4725 15.8927 10.5746 15.8352 10.7351 15.8352C10.9103 15.8352 11.0854 15.9071 11.1729 15.9502L11.3043 15.7058V15.7058ZM19.4468 15.562C19.2716 15.562 19.1549 15.6482 19.0819 15.7633V15.5907H18.7755V16.9712H19.0819V16.1947C19.0819 15.9646 19.1841 15.8352 19.3737 15.8352C19.4321 15.8352 19.5051 15.8496 19.5635 15.864L19.651 15.5764C19.5927 15.562 19.5051 15.562 19.4468 15.562V15.562ZM15.536 16.281C15.536 16.698 15.8278 17 16.2802 17C16.4845 17 16.6304 16.9569 16.7763 16.8419L16.6304 16.5974C16.5137 16.6837 16.397 16.7268 16.2656 16.7268C16.0175 16.7268 15.8425 16.5542 15.8425 16.281C15.8425 16.0222 16.0175 15.8496 16.2656 15.8352C16.397 15.8352 16.5137 15.8783 16.6304 15.9646L16.7763 15.7202C16.6304 15.6051 16.4845 15.562 16.2802 15.562C15.8278 15.562 15.536 15.864 15.536 16.281ZM18.3669 16.281V15.5907H18.0605V15.7633C17.9583 15.6339 17.8124 15.562 17.6227 15.562C17.2287 15.562 16.9223 15.864 16.9223 16.281C16.9223 16.698 17.2287 17 17.6227 17C17.827 17 17.973 16.9281 18.0605 16.7987V16.9712H18.3669V16.281V16.281ZM17.2433 16.281C17.2433 16.0365 17.4038 15.8352 17.6664 15.8352C17.9145 15.8352 18.0897 16.0222 18.0897 16.281C18.0897 16.5255 17.9145 16.7268 17.6664 16.7268C17.4038 16.7124 17.2433 16.5255 17.2433 16.281V16.281ZM13.5807 15.562C13.1721 15.562 12.8802 15.8496 12.8802 16.281C12.8802 16.7124 13.172 17 13.5952 17C13.7995 17 14.0038 16.9425 14.1644 16.8131L14.0184 16.5974C13.9017 16.6837 13.7558 16.7412 13.6099 16.7412C13.4201 16.7412 13.2304 16.6549 13.1866 16.4104H14.2227V16.2954C14.2373 15.8496 13.9747 15.562 13.5806 15.562H13.5807ZM13.5807 15.8208C13.7703 15.8208 13.9017 15.9359 13.9308 16.1516H13.2012C13.2304 15.9646 13.3618 15.8208 13.5807 15.8208ZM21.1832 16.281V15.0443H20.8768V15.7633C20.7746 15.6339 20.6287 15.562 20.439 15.562C20.045 15.562 19.7386 15.864 19.7386 16.281C19.7386 16.698 20.045 17 20.439 17C20.6433 17 20.7892 16.9281 20.8768 16.7987V16.9712H21.1832V16.281V16.281ZM20.0596 16.281C20.0596 16.0365 20.2201 15.8352 20.4828 15.8352C20.7309 15.8352 20.906 16.0222 20.906 16.281C20.906 16.5255 20.7309 16.7268 20.4828 16.7268C20.2201 16.7124 20.0596 16.5255 20.0596 16.281V16.281ZM9.81582 16.281V15.5907H9.50939V15.7633C9.40722 15.6339 9.26131 15.562 9.0716 15.562C8.67762 15.562 8.37118 15.864 8.37118 16.281C8.37118 16.698 8.67762 17 9.0716 17C9.27594 17 9.42184 16.9281 9.50939 16.7987V16.9712H9.81582V16.281V16.281ZM8.67762 16.281C8.67762 16.0365 8.83815 15.8352 9.10078 15.8352C9.34886 15.8352 9.52401 16.0222 9.52401 16.281C9.52401 16.5255 9.34886 16.7268 9.10078 16.7268C8.83815 16.7124 8.67762 16.5255 8.67762 16.281V16.281Z" fill="black"/>
<path d="M11.2021 5.10728H15.7987V13.2467H11.2021V5.10728Z" fill="#FF5F00"/>
<path d="M11.4936 9.17701C11.4936 7.52327 12.2816 6.05642 13.4927 5.10728C12.6026 4.41702 11.479 4 10.2533 4C7.34932 4 5 6.31524 5 9.17701C5 12.0387 7.34932 14.354 10.2532 14.354C11.479 14.354 12.6026 13.937 13.4927 13.2467C12.2816 12.3119 11.4936 10.8307 11.4936 9.17701V9.17701Z" fill="#EB001B"/>
<path d="M21.9995 9.17701C21.9995 12.0387 19.6502 14.354 16.7463 14.354C15.5205 14.354 14.397 13.937 13.5068 13.2467C14.7326 12.2976 15.506 10.8307 15.506 9.17701C15.506 7.52327 14.718 6.05642 13.5068 5.10728C14.3969 4.41702 15.5205 4 16.7463 4C19.6502 4 21.9996 6.32965 21.9996 9.17701H21.9995Z" fill="#F79E1B"/>
</svg>
