<svg width="10" height="18" viewBox="0 0 10 18" fill="none" xmlns="http://www.w3.org/2000/svg">
<path d="M1.98157 0.346305L9.74654 8.10356C9.83871 8.19591 9.90384 8.29595 9.94194 8.40369C9.98065 8.51143 10 8.62687 10 8.75C10 8.87313 9.98065 8.98857 9.94194 9.09631C9.90384 9.20405 9.83871 9.30409 9.74654 9.39644L1.98157 17.1768C1.76651 17.3923 1.4977 17.5 1.17511 17.5C0.852534 17.5 0.576037 17.3846 0.345622 17.1537C0.115207 16.9228 -1.16853e-07 16.6535 -8.99416e-08 16.3456C-6.30305e-08 16.0378 0.115207 15.7685 0.345622 15.5376L7.11982 8.75L0.345623 1.9624C0.13057 1.74692 0.0230423 1.48157 0.0230424 1.16636C0.0230424 0.850527 0.13825 0.577175 0.368665 0.346305C0.599079 0.115434 0.867897 -1.23171e-06 1.17512 -1.20486e-06C1.48234 -1.178e-06 1.75115 0.115434 1.98157 0.346305Z" fill="#1C1C1C" fill-opacity="0.9"/>
</svg>
