<svg width="10" height="18" viewBox="0 0 10 18" fill="none" xmlns="http://www.w3.org/2000/svg">
<path d="M8.01843 17.1537L0.253456 9.39644C0.16129 9.30409 0.0961595 9.20405 0.0580643 9.09631C0.0193546 8.98857 0 8.87313 0 8.75C0 8.62687 0.0193546 8.51143 0.0580643 8.40369C0.0961595 8.29595 0.16129 8.19591 0.253456 8.10356L8.01843 0.323219C8.23349 0.10774 8.5023 0 8.82489 0C9.14747 0 9.42396 0.115435 9.65438 0.346306C9.88479 0.577177 10 0.846526 10 1.15435C10 1.46218 9.88479 1.73153 9.65438 1.9624L2.88018 8.75L9.65438 15.5376C9.86943 15.7531 9.97696 16.0184 9.97696 16.3336C9.97696 16.6495 9.86175 16.9228 9.63134 17.1537C9.40092 17.3846 9.1321 17.5 8.82489 17.5C8.51767 17.5 8.24885 17.3846 8.01843 17.1537Z" fill="#1C1C1C" fill-opacity="0.9"/>
</svg>
