<svg width="20" height="21" viewBox="0 0 20 21" fill="none" xmlns="http://www.w3.org/2000/svg">
<path d="M15.1 11.675L18.6 15.175V6C18.6 5.06667 18.3167 4.25 17.75 3.55C17.1833 2.85 16.4667 2.38333 15.6 2.15V0H12.6V2H8.6V0H5.6V2.15H5.575L13.425 10H15.1V11.675ZM18.375 20.6L15.175 17.4H17.975L18.6 18.025V20H2.6V6C2.6 5.45 2.704 4.93333 2.912 4.45C3.12067 3.96667 3.40833 3.54167 3.775 3.175L4.75 4.15V6.975L0 2.225L1.4 0.8L19.775 19.2L18.375 20.6ZM6.1 12H9.775L7.775 10H6.1V12Z" fill="black"/>
</svg>
