<svg width="18" height="15" viewBox="0 0 18 15" fill="none" xmlns="http://www.w3.org/2000/svg">
<path d="M1.45946 6C0.651892 6 0 6.67 0 7.5C0 8.33 0.651892 9 1.45946 9C2.26703 9 2.91892 8.33 2.91892 7.5C2.91892 6.67 2.26703 6 1.45946 6ZM1.45946 0C0.651892 0 0 0.67 0 1.5C0 2.33 0.651892 3 1.45946 3C2.26703 3 2.91892 2.33 2.91892 1.5C2.91892 0.67 2.26703 0 1.45946 0ZM1.45946 12C0.651892 12 0 12.68 0 13.5C0 14.32 0.661622 15 1.45946 15C2.2573 15 2.91892 14.32 2.91892 13.5C2.91892 12.68 2.26703 12 1.45946 12ZM4.37838 14.5H18V12.5H4.37838V14.5ZM4.37838 8.5H18V6.5H4.37838V8.5ZM4.37838 0.5V2.5H18V0.5H4.37838Z" fill="#1C1C1C"/>
</svg>
