<svg width="18" height="18" viewBox="0 0 18 18" fill="none" xmlns="http://www.w3.org/2000/svg">
<path d="M2 8C1.45 8 0.979 7.804 0.587 7.412C0.195667 7.02067 0 6.55 0 6V2C0 1.45 0.195667 0.979 0.587 0.587C0.979 0.195667 1.45 0 2 0H6C6.55 0 7.021 0.195667 7.413 0.587C7.80433 0.979 8 1.45 8 2V6C8 6.55 7.80433 7.02067 7.413 7.412C7.021 7.804 6.55 8 6 8H2ZM2 18C1.45 18 0.979 17.8043 0.587 17.413C0.195667 17.021 0 16.55 0 16V12C0 11.45 0.195667 10.979 0.587 10.587C0.979 10.1957 1.45 10 2 10H6C6.55 10 7.021 10.1957 7.413 10.587C7.80433 10.979 8 11.45 8 12V16C8 16.55 7.80433 17.021 7.413 17.413C7.021 17.8043 6.55 18 6 18H2ZM12 8C11.45 8 10.9793 7.804 10.588 7.412C10.196 7.02067 10 6.55 10 6V2C10 1.45 10.196 0.979 10.588 0.587C10.9793 0.195667 11.45 0 12 0H16C16.55 0 17.021 0.195667 17.413 0.587C17.8043 0.979 18 1.45 18 2V6C18 6.55 17.8043 7.02067 17.413 7.412C17.021 7.804 16.55 8 16 8H12ZM12 18C11.45 18 10.9793 17.8043 10.588 17.413C10.196 17.021 10 16.55 10 16V12C10 11.45 10.196 10.979 10.588 10.587C10.9793 10.1957 11.45 10 12 10H16C16.55 10 17.021 10.1957 17.413 10.587C17.8043 10.979 18 11.45 18 12V16C18 16.55 17.8043 17.021 17.413 17.413C17.021 17.8043 16.55 18 16 18H12ZM2 6H6V2H2V6ZM12 6H16V2H12V6ZM12 16H16V12H12V16ZM2 16H6V12H2V16Z" fill="#1C1C1C"/>
</svg>
