<svg width="33" height="41" viewBox="0 0 33 41" fill="none" xmlns="http://www.w3.org/2000/svg">
<path d="M4.125 41C2.99062 41 2.01987 40.5989 1.21275 39.7966C0.40425 38.993 0 38.0275 0 36.9V12.3C0 10.3867 0.584375 8.7125 1.75312 7.2775C2.92187 5.8425 4.4 4.88583 6.1875 4.4075V0H12.375V4.1H20.625V0H26.8125V4.4075C28.6 4.88583 30.0781 5.8425 31.2469 7.2775C32.4156 8.7125 33 10.3867 33 12.3V36.9C33 38.0275 32.5964 38.993 31.7893 39.7966C30.9808 40.5989 30.0094 41 28.875 41H4.125ZM21.6562 28.7H25.7812V20.5H7.21875V24.6H21.6562V28.7Z" fill="#1C1C1C"/>
</svg>
