<svg width="23" height="23" viewBox="0 0 23 23" fill="none" xmlns="http://www.w3.org/2000/svg">
<path d="M21.2111 23L13.1611 14.95C12.5222 15.4611 11.7875 15.8657 10.9569 16.1639C10.1264 16.462 9.24259 16.6111 8.30556 16.6111C5.98426 16.6111 4.01989 15.8074 2.41244 14.1999C0.804148 12.5916 0 10.6269 0 8.30556C0 5.98426 0.804148 4.01946 2.41244 2.41117C4.01989 0.803722 5.98426 0 8.30556 0C10.6269 0 12.5916 0.803722 14.1999 2.41117C15.8074 4.01946 16.6111 5.98426 16.6111 8.30556C16.6111 9.24259 16.462 10.1264 16.1639 10.9569C15.8657 11.7875 15.4611 12.5222 14.95 13.1611L23 21.2111L21.2111 23ZM8.30556 14.0556C9.90278 14.0556 11.2606 13.4967 12.3791 12.3791C13.4967 11.2606 14.0556 9.90278 14.0556 8.30556C14.0556 6.70833 13.4967 5.35048 12.3791 4.232C11.2606 3.11437 9.90278 2.55556 8.30556 2.55556C6.70833 2.55556 5.35048 3.11437 4.232 4.232C3.11437 5.35048 2.55556 6.70833 2.55556 8.30556C2.55556 9.90278 3.11437 11.2606 4.232 12.3791C5.35048 13.4967 6.70833 14.0556 8.30556 14.0556Z" fill="black" fill-opacity="0.4"/>
</svg>
